<svg width="24" height="24" viewBox="0 0 24 24" fill="none" xmlns="http://www.w3.org/2000/svg">
<path d="M21 7.33701H17.07L17.442 3.06501C17.478 2.65301 17.172 2.29001 16.76 2.25301C16.343 2.22301 15.984 2.52301 15.948 2.93601L15.565 7.33601H9.245L9.615 3.06601C9.652 2.65301 9.345 2.29001 8.935 2.25301C8.515 2.22301 8.158 2.52301 8.122 2.93601L7.74 7.33601H3.782C3.368 7.33601 3.032 7.67301 3.032 8.08601C3.032 8.49901 3.368 8.83601 3.782 8.83601H7.61L7.06 15.163H3C2.586 15.163 2.25 15.499 2.25 15.913C2.25 16.327 2.586 16.663 3 16.663H6.93L6.558 20.935C6.522 21.347 6.828 21.71 7.24 21.747L7.306 21.75C7.691 21.75 8.018 21.455 8.052 21.064L8.435 16.664H14.755L14.385 20.934C14.349 21.347 14.655 21.71 15.067 21.747L15.133 21.75C15.518 21.75 15.845 21.455 15.879 21.064L16.261 16.664H20.218C20.631 16.664 20.968 16.327 20.968 15.914C20.968 15.501 20.631 15.164 20.218 15.164H16.39L16.94 8.83701H21C21.414 8.83701 21.75 8.50101 21.75 8.08701C21.75 7.67301 21.414 7.33701 21 7.33701ZM14.885 15.163H8.565L9.115 8.83701H15.435L14.885 15.163Z" fill="white"/>
</svg>
