<svg width="24" height="24" viewBox="0 0 24 24" fill="none" xmlns="http://www.w3.org/2000/svg">
<g clip-path="url(#clip0_4_210)">
<path d="M-37.9 18C-38 17.9 -38 17.9 -38 17.8C-37.9 17.8 -37.9 17.9 -37.9 18ZM18 2.19998H16.7V1.89998C16.7 1.49998 16.4 1.09998 15.9 1.09998C15.5 1.09998 15.1 1.39998 15.1 1.89998V2.19998H7.7V1.89998C7.7 1.49998 7.4 1.09998 6.9 1.09998C6.5 1.09998 6.1 1.39998 6.1 1.89998V2.19998H4.8C3.4 2.19998 2.3 3.29998 2.3 4.69998V17.8C2.3 19.2 3.4 20.3 4.8 20.3H7.7C8.1 20.3 8.5 20 8.5 19.5C8.5 19.1 8.2 18.7 7.7 18.7H4.8C4.2 18.7 3.8 18.2 3.8 17.7V7.89998C3.8 7.59998 4.2 7.19998 4.8 7.19998H18C18.6 7.19998 19 7.59998 19 7.89998V9.69998C19 10.1 19.3 10.5 19.8 10.5C20.2 10.5 20.6 10.2 20.6 9.69998V4.69998C20.5 3.29998 19.4 2.19998 18 2.19998ZM19 5.89998C18.7 5.79998 18.3 5.69998 18 5.69998H4.8C4.4 5.69998 4.1 5.79998 3.8 5.89998V4.69998C3.8 4.09998 4.3 3.69998 4.8 3.69998H6.1V4.19998C6.1 4.59998 6.4 4.99998 6.9 4.99998C7.3 4.99998 7.7 4.69998 7.7 4.19998V3.69998H15.2V4.19998C15.2 4.59998 15.5 4.99998 16 4.99998C16.4 4.99998 16.8 4.69998 16.8 4.19998V3.69998H18C18.6 3.69998 19 4.19998 19 4.69998V5.89998Z" fill="#1DA1F2"/>
<path d="M15.5 10.4C12.1 10.4 9.30005 13.2 9.30005 16.6C9.30005 20 12.1 22.8 15.5 22.8C18.9 22.8 21.7 20 21.7 16.6C21.7 13.2 18.9 10.4 15.5 10.4ZM15.5 21.4C12.9 21.4 10.8 19.3 10.8 16.7C10.8 14.1 12.9 12 15.5 12C18.1 12 20.2 14.1 20.2 16.7C20.2 19.2 18.1 21.4 15.5 21.4Z" fill="#1DA1F2"/>
<path d="M18.9 18.7C18.8 18.9 18.5 19.1 18.3 19.1C18.2 19.1 18 19.1 17.9 19L14.8 17V14C14.8 13.6 15.1 13.2 15.6 13.2C16 13.2 16.4 13.5 16.4 14V16.2L18.8 17.7C19 17.9 19.1 18.3 18.9 18.7Z" fill="#1DA1F2"/>
</g>
<defs>
<clipPath id="clip0_4_210">
<rect width="24" height="24" fill="white"/>
</clipPath>
</defs>
</svg>
